<svg width="76" height="57" viewBox="0 0 76 57" fill="none" xmlns="http://www.w3.org/2000/svg">
<path d="M8 0C7.00544 0 6.05161 0.395089 5.34835 1.09835C4.64509 1.80161 4.25 2.75544 4.25 3.75V22.5C2.525 22.5 1.025 23.6625 0.6125 25.35V37.3875H1.5875C2.9375 35.1375 5.375 33.75 8 33.75H41.75C44.375 33.75 46.8125 35.1375 48.1625 37.3875H53.1125L53 26.25C53 25.2554 52.6049 24.3016 51.9016 23.5984C51.1984 22.8951 50.2446 22.5 49.25 22.5H41.75V15C41.75 14.0054 41.3549 13.0516 40.6516 12.3484C39.9484 11.6451 38.9946 11.25 38 11.25C37.0054 11.25 36.0516 11.6451 35.3484 12.3484C34.6451 13.0516 34.25 14.0054 34.25 15V22.5H26.75V3.75C26.75 2.75544 26.3549 1.80161 25.6516 1.09835C24.9484 0.395089 23.9946 0 23 0H8ZM11.75 7.5H19.25V26.25H11.75V7.5ZM56.75 26.25V56.25H75.5V52.5L64.25 48.75L60.5 26.25H56.75ZM8 41.25C6.01088 41.25 4.10322 42.0402 2.6967 43.4467C1.29018 44.8532 0.5 46.7609 0.5 48.75C0.5 50.7391 1.29018 52.6468 2.6967 54.0533C4.10322 55.4598 6.01088 56.25 8 56.25H41.75C43.7391 56.25 45.6468 55.4598 47.0533 54.0533C48.4598 52.6468 49.25 50.7391 49.25 48.75C49.25 46.7609 48.4598 44.8532 47.0533 43.4467C45.6468 42.0402 43.7391 41.25 41.75 41.25H8Z" fill="#191919"/>
</svg>
