<svg width="84" height="57" viewBox="0 0 84 57" fill="none" xmlns="http://www.w3.org/2000/svg">
<path d="M72 12H53.25V34.5H4.5V45.75H8.25C8.25 48.7337 9.43526 51.5952 11.545 53.705C13.6548 55.8147 16.5163 57 19.5 57C22.4837 57 25.3452 55.8147 27.455 53.705C29.5647 51.5952 30.75 48.7337 30.75 45.75H53.25C53.25 48.7337 54.4353 51.5952 56.545 53.705C58.6548 55.8147 61.5163 57 64.5 57C67.4837 57 70.3452 55.8147 72.455 53.705C74.5647 51.5952 75.75 48.7337 75.75 45.75H83.25V27L72 12ZM19.5 51.375C18.0082 51.375 16.5774 50.7824 15.5225 49.7275C14.4676 48.6726 13.875 47.2418 13.875 45.75C13.875 44.2582 14.4676 42.8274 15.5225 41.7725C16.5774 40.7176 18.0082 40.125 19.5 40.125C20.9918 40.125 22.4226 40.7176 23.4775 41.7725C24.5324 42.8274 25.125 44.2582 25.125 45.75C25.125 47.2418 24.5324 48.6726 23.4775 49.7275C22.4226 50.7824 20.9918 51.375 19.5 51.375ZM64.5 51.375C63.0082 51.375 61.5774 50.7824 60.5225 49.7275C59.4676 48.6726 58.875 47.2418 58.875 45.75C58.875 44.2582 59.4676 42.8274 60.5225 41.7725C61.5774 40.7176 63.0082 40.125 64.5 40.125C65.9918 40.125 67.4226 40.7176 68.4775 41.7725C69.5324 42.8274 70.125 44.2582 70.125 45.75C70.125 47.2418 69.5324 48.6726 68.4775 49.7275C67.4226 50.7824 65.9918 51.375 64.5 51.375ZM60.75 27V17.625H70.125L77.475 27H60.75ZM64.5 8.25H49.5V30.75H8.25L2.8875 12H0.75V4.5H45.75L49.5 0.75H64.5V8.25Z" fill="#191919"/>
</svg>
