<svg width="76" height="76" viewBox="0 0 76 76" fill="none" xmlns="http://www.w3.org/2000/svg">
<path d="M13.625 62.375C11.6 62.375 9.87497 64.1 9.87497 66.125C9.87497 68.15 11.6 69.875 13.625 69.875H58.625C60.65 69.875 62.375 68.15 62.375 66.125C62.375 64.1 60.65 62.375 58.625 62.375H13.625ZM13.625 56.75H58.625C63.7625 56.75 68 60.9875 68 66.125C68 71.2625 63.7625 75.5 58.625 75.5H13.625C11.1386 75.5 8.754 74.5123 6.99584 72.7541C5.23769 70.996 4.24997 68.6114 4.24997 66.125C4.24997 63.6386 5.23769 61.254 6.99584 59.4959C8.754 57.7377 11.1386 56.75 13.625 56.75ZM4.24997 34.25H15.5V19.25H34.25L45.5 34.25V53H0.499969L4.24997 34.25ZM39.725 34.25L32.375 24.875H23V34.25H39.725ZM46.4 5.7875L65.15 0.5L75.5 37.3625C76.775 42.1625 73.9625 47.15 69.125 48.5L64.775 49.7L52.4375 39.0875L66.9875 35.0375L59.9375 9.725L49.475 12.65C47.375 13.7375 42.8375 16.775 39.9875 20.6375L36.125 15.5H34.475C39.2 9.5375 46.0625 5.975 46.4 5.7875Z" fill="#191919"/>
</svg>
