<svg width="30" height="30" viewBox="0 0 30 30" fill="none" xmlns="http://www.w3.org/2000/svg">
<path d="M5.88193 0.00756836C2.65041 0.00756836 0.00561523 2.65231 0.00561523 5.88388V24.1191C0.00561523 27.3506 2.65036 29.9945 5.88193 29.9945H24.1172C27.3487 29.9945 29.9925 27.3506 29.9925 24.1191V5.88388C29.9925 2.65237 27.3487 0.00756836 24.1172 0.00756836H5.88193ZM7.35991 4.95601C8.90935 4.95601 9.86374 5.97319 9.8932 7.31026C9.8932 8.61781 8.90928 9.66358 7.32994 9.66358H7.30087C5.78092 9.66358 4.79851 8.61787 4.79851 7.31026C4.79851 5.97322 5.81065 4.95601 7.35988 4.95601H7.35991ZM20.7123 11.2053C23.6922 11.2053 25.926 13.153 25.926 17.3384V25.1519H21.3974V17.8622C21.3974 16.0304 20.742 14.7807 19.1031 14.7807C17.852 14.7807 17.1063 15.623 16.7789 16.4368C16.6592 16.7279 16.6298 17.1345 16.6298 17.5417V25.1519H12.1013C12.1013 25.1519 12.1607 12.8035 12.1013 11.5249H16.6308V13.4546C17.2326 12.5261 18.309 11.2053 20.7123 11.2053V11.2053ZM5.06563 11.5259H9.59421V25.1519H5.06563V11.5259Z" fill="white"/>
</svg>
