<svg width="147" height="147" viewBox="0 0 147 147" fill="none" xmlns="http://www.w3.org/2000/svg">
<circle cx="73.5" cy="73.5" r="73.5" fill="#F3F3F3"/>
<path d="M90.1948 41.194C90.659 41.3859 91.0559 41.7112 91.3352 42.1287C91.6145 42.5462 91.7636 43.0372 91.7636 43.5395V56.2321H104.457C104.96 56.2312 105.451 56.3796 105.87 56.6585C106.288 56.9373 106.614 57.3341 106.807 57.7986C106.999 58.263 107.049 58.7741 106.951 59.2671C106.853 59.7601 106.61 60.2129 106.254 60.5679L96.0996 70.7219C95.8634 70.9575 95.5831 71.1442 95.2747 71.2714C94.9663 71.3986 94.6359 71.4638 94.3023 71.4632H80.1215L76.3643 75.2253C76.5651 75.9779 76.5901 76.7666 76.4376 77.5305C76.285 78.2944 75.9588 79.013 75.4843 79.6308C75.0098 80.2486 74.3996 80.749 73.7009 81.0934C73.0021 81.4379 72.2336 81.6171 71.4546 81.6172C70.108 81.6172 68.8166 81.0823 67.8644 80.1302C66.9122 79.1781 66.3773 77.8867 66.3773 76.5402L66.3824 76.3067C66.4172 75.5483 66.6217 74.8073 66.9807 74.1384C67.3398 73.4695 67.8443 72.8896 68.4572 72.4414C69.07 71.9933 69.7755 71.6883 70.5219 71.5488C71.2682 71.4094 72.0363 71.4391 72.7696 71.6358L76.5318 67.8737V53.6936C76.5312 53.36 76.5964 53.0296 76.7236 52.7212C76.8508 52.4128 77.0375 52.1325 77.2731 51.8963L87.4277 41.7423C87.783 41.3875 88.2355 41.146 88.728 41.0484C89.2206 40.9508 89.731 41.0015 90.1948 41.194ZM93.2513 66.3862L98.3286 61.3091H89.225C88.5517 61.3091 87.906 61.0417 87.4299 60.5656C86.9538 60.0896 86.6864 59.4439 86.6864 58.7706V49.6675L81.6091 54.7445V66.3862H93.2513ZM101.639 72.3567C102.515 78.6783 101.383 85.1154 98.4036 90.7593C95.424 96.4031 90.747 100.969 85.0327 103.811C79.3185 106.654 72.8557 107.63 66.5567 106.602C60.2577 105.574 54.4407 102.594 49.9268 98.082C45.413 93.5701 42.4302 87.7546 41.3997 81.4563C40.3692 75.158 41.343 68.6952 44.1836 62.9801C47.0242 57.265 51.5881 52.5864 57.231 49.6047C62.874 46.623 69.3109 45.4889 75.6332 46.3624L73.6886 48.3069C72.8838 49.1117 72.2696 50.0867 71.8912 51.1602L71.4546 51.1551C66.4152 51.1558 61.4901 52.6563 57.3064 55.4655C53.1227 58.2746 49.8697 62.2653 47.9618 66.9293C46.0538 71.5933 45.5773 76.7196 46.5927 81.6554C47.6082 86.5911 50.0697 91.113 53.6639 94.6452C57.258 98.1774 61.8221 100.56 66.775 101.49C71.7279 102.419 76.8454 101.854 81.4759 99.8653C86.1063 97.8769 90.0402 94.5554 92.7764 90.3238C95.5127 86.0922 96.9276 81.142 96.8409 76.1036C97.9103 75.7254 98.8817 75.1131 99.6842 74.3114L101.634 72.3567H101.639ZM71.4546 58.7706C67.9399 58.7706 64.5042 59.8128 61.5818 61.7653C58.6595 63.7179 56.3818 66.4931 55.0368 69.7401C53.6918 72.987 53.3399 76.5599 54.0256 80.0069C54.7113 83.4538 56.4037 86.6201 58.889 89.1052C61.3742 91.5903 64.5406 93.2827 67.9877 93.9683C71.4349 94.654 75.0079 94.3021 78.255 92.9572C81.5022 91.6122 84.2775 89.3346 86.2302 86.4124C88.1828 83.4903 89.225 80.0547 89.225 76.5402H84.1477C84.1477 79.0505 83.4033 81.5045 82.0086 83.5918C80.6138 85.6791 78.6314 87.3059 76.312 88.2666C73.9927 89.2273 71.4405 89.4786 68.9783 88.9889C66.516 88.4991 64.2543 87.2903 62.4791 85.5152C60.704 83.7401 59.4951 81.4785 59.0053 79.0164C58.5155 76.5543 58.7669 74.0022 59.7276 71.683C60.6883 69.3637 62.3152 67.3814 64.4026 65.9867C66.49 64.592 68.9441 63.8476 71.4546 63.8476V58.7706Z" fill="#191919"/>
</svg>
