<svg width="121" height="149" viewBox="0 0 121 149" fill="none" xmlns="http://www.w3.org/2000/svg">
<path d="M94 149L60 130.701L26 149V103H94V149Z" fill="#17507F"/>
<path d="M121 60.4992C121 68.1074 111.03 73.6768 108.287 80.2918C105.444 87.1492 108.456 98.1129 103.28 103.28C98.1051 108.447 87.1501 105.443 80.2929 108.287C73.6782 111.03 68.1089 121 60.5025 121C52.8961 121 47.3269 111.03 40.7121 108.287C33.8549 105.443 22.8915 108.455 17.723 103.28C12.5544 98.1045 15.5613 87.1492 12.7143 80.2918C9.97011 73.6768 0 68.1074 0 60.4992C0 52.8909 9.97348 47.3232 12.7143 40.7082C15.5579 33.8508 12.546 22.8871 17.7196 17.7201C22.8932 12.5531 33.8516 15.5566 40.7088 12.713C47.3269 9.97039 52.8961 0 60.5025 0C68.1089 0 73.6782 9.97039 80.2929 12.713C87.1501 15.5566 98.1135 12.5531 103.28 17.7201C108.447 22.8871 105.444 33.8508 108.287 40.7082C111.035 47.3232 121 52.8926 121 60.4992Z" fill="#215E9B"/>
<path d="M22.3978 52.8567L13.5481 50.619L14.3042 47.6288C14.479 46.9374 14.7406 46.3997 15.089 46.0158C15.4345 45.6312 15.8388 45.384 16.3018 45.2743C16.7647 45.1645 17.2569 45.1756 17.7783 45.3074C18.2998 45.4393 18.7352 45.6628 19.0846 45.9779C19.434 46.2931 19.6682 46.7002 19.7872 47.1992C19.9033 47.6975 19.8747 48.2895 19.7014 48.9751L19.0895 51.3949L18.1216 51.1502L18.7247 48.7649C18.8441 48.2925 18.8712 47.8947 18.8057 47.5717C18.741 47.2457 18.5983 46.9859 18.3776 46.7922C18.1547 46.5948 17.8661 46.4514 17.5117 46.3618C17.1574 46.2722 16.831 46.2601 16.5324 46.3256C16.2339 46.3911 15.9758 46.5512 15.7582 46.8057C15.5377 47.0595 15.367 47.4255 15.2461 47.9037L14.7697 49.7877L22.6688 51.7851L22.3978 52.8567ZM19.4757 47.6859L24.0018 46.5132L23.6871 47.7577L19.1697 48.8958L19.4757 47.6859Z" fill="white"/>
<path d="M24.3541 46.1831L16.0474 42.4406L18.3061 37.4273L19.1984 37.8294L17.3929 41.8367L20.1997 43.1013L21.8882 39.3535L22.7805 39.7556L21.092 43.5033L23.915 44.7752L25.7497 40.703L26.642 41.105L24.3541 46.1831Z" fill="white"/>
<path d="M24.2396 32.5426C23.8353 32.3386 23.4249 32.3258 23.0086 32.5042C22.5922 32.6826 22.232 33.0011 21.9281 33.4599C21.7058 33.7953 21.5656 34.1247 21.5074 34.4482C21.4509 34.7692 21.471 35.0629 21.5677 35.3293C21.6661 35.5933 21.8361 35.8054 22.0778 35.9655C22.2801 36.0995 22.4858 36.1667 22.6951 36.1669C22.9035 36.163 23.1064 36.1165 23.3039 36.0273C23.499 35.9365 23.6829 35.8277 23.8557 35.7008C24.026 35.5724 24.1763 35.4501 24.3064 35.334L25.0235 34.7018C25.206 34.5388 25.423 34.3667 25.6744 34.1855C25.9274 34.0018 26.2064 33.8513 26.5114 33.7339C26.8155 33.6124 27.1378 33.5598 27.4784 33.5761C27.819 33.5924 28.1668 33.7182 28.522 33.9536C28.9314 34.2248 29.2302 34.5773 29.4185 35.0108C29.6085 35.4419 29.6652 35.9267 29.5888 36.4653C29.5139 37.0013 29.2837 37.5603 28.898 38.1424C28.5384 38.685 28.1396 39.0968 27.7013 39.3778C27.2647 39.6564 26.8147 39.8054 26.3511 39.8247C25.8891 39.8416 25.4412 39.7275 25.0073 39.4826L25.6348 38.5355C25.9373 38.7004 26.2378 38.7611 26.5363 38.7176C26.8341 38.67 27.1144 38.547 27.3772 38.3485C27.6392 38.1459 27.8699 37.8942 28.0693 37.5933C28.3014 37.2431 28.453 36.891 28.5243 36.5371C28.593 36.1816 28.579 35.8547 28.4821 35.5563C28.3828 35.2562 28.1951 35.0147 27.9188 34.8316C27.6673 34.6649 27.416 34.5996 27.165 34.6355C26.914 34.6715 26.6632 34.7715 26.4125 34.9355C26.1619 35.0995 25.9113 35.2902 25.6608 35.5075L24.7767 36.2633C24.2143 36.7424 23.6609 37.05 23.1164 37.1861C22.5719 37.3222 22.0444 37.2211 21.5339 36.8828C21.1097 36.6017 20.8157 36.2419 20.652 35.8033C20.4875 35.3607 20.4468 34.8865 20.5299 34.3808C20.6122 33.871 20.8135 33.3744 21.1338 32.891C21.4574 32.4026 21.8326 32.0266 22.2594 31.7628C22.6837 31.4974 23.1198 31.3534 23.5678 31.3308C24.0174 31.3058 24.4374 31.4137 24.8279 31.6547L24.2396 32.5426Z" fill="white"/>
<path d="M30.8724 35.2262L24.3 28.9277L26.4283 26.707C26.9224 26.1914 27.4193 25.8591 27.9192 25.7102C28.4189 25.557 28.9019 25.552 29.3681 25.695C29.8343 25.8381 30.2611 26.0952 30.6483 26.4663C31.0355 26.8374 31.3116 27.2538 31.4765 27.7156C31.6435 28.1752 31.6643 28.6589 31.5388 29.1667C31.4113 29.6724 31.1025 30.1809 30.6125 30.6922L29.087 32.284L28.381 31.6074L29.8818 30.0413C30.2201 29.6883 30.4308 29.3464 30.5139 29.0156C30.597 28.6848 30.5809 28.3718 30.4656 28.0766C30.3503 27.7773 30.161 27.5015 29.8979 27.2493C29.6347 26.9972 29.3522 26.8208 29.0504 26.7204C28.7506 26.6178 28.4383 26.6181 28.1136 26.7214C27.7867 26.8227 27.4521 27.052 27.1097 27.4093L25.7688 28.8085L31.6351 34.4304L30.8724 35.2262Z" fill="white"/>
<path d="M39.3942 22.2085C39.943 22.9979 40.2747 23.7792 40.3893 24.5524C40.504 25.3256 40.4211 26.0409 40.1409 26.6983C39.8606 27.3557 39.4013 27.9063 38.7629 28.3501C38.1245 28.7938 37.4484 29.0325 36.7345 29.0662C36.0207 29.0998 35.3214 28.9282 34.6366 28.5513C33.9518 28.1744 33.335 27.5913 32.7862 26.8018C32.2374 26.0124 31.9057 25.2311 31.7911 24.4579C31.6765 23.6847 31.7593 22.9694 32.0396 22.312C32.3198 21.6546 32.7791 21.104 33.4175 20.6602C34.0559 20.2165 34.732 19.9778 35.4459 19.9441C36.1597 19.9105 36.8591 20.0821 37.5439 20.459C38.2287 20.8359 38.8455 21.419 39.3942 22.2085ZM38.5171 22.8182C38.0665 22.1701 37.5779 21.6984 37.051 21.4033C36.5267 21.1064 36.0009 20.9714 35.4738 20.9981C34.9491 21.0231 34.4601 21.1931 34.0069 21.5082C33.5537 21.8232 33.2228 22.2231 33.0141 22.7079C32.8078 23.191 32.7512 23.7308 32.8443 24.3275C32.9398 24.9224 33.2129 25.544 33.6634 26.1921C34.1139 26.8402 34.6014 27.3127 35.1257 27.6096C35.6525 27.9047 36.1783 28.0398 36.703 28.0148C37.2301 27.988 37.7203 27.8172 38.1735 27.5021C38.6267 27.1871 38.9564 26.788 39.1627 26.3049C39.3714 25.8202 39.428 25.2803 39.3325 24.6854C39.2394 24.0887 38.9676 23.4663 38.5171 22.8182Z" fill="white"/>
<path d="M46.2994 14.3547L49.7366 22.8111L48.7456 23.2139L41.4388 18.4473L41.3562 18.4809L44.055 25.1205L43.031 25.5367L39.5938 17.0803L40.5847 16.6775L47.9148 21.4539L47.9974 21.4203L45.2919 14.7642L46.2994 14.3547Z" fill="white"/>
<path d="M54.5494 14.9953C54.4104 14.5623 54.1303 14.2597 53.7092 14.0876C53.288 13.9156 52.8062 13.8825 52.2638 13.9884C51.8672 14.0659 51.5327 14.1978 51.2602 14.3842C50.9908 14.5701 50.7948 14.7915 50.6724 15.0485C50.553 15.305 50.5212 15.5761 50.577 15.8619C50.6237 16.101 50.7207 16.2955 50.868 16.4454C51.0177 16.5918 51.1941 16.7042 51.3971 16.7826C51.5996 16.8581 51.8071 16.9129 52.0196 16.9471C52.2316 16.9784 52.425 16.9997 52.5997 17.0109L53.5575 17.0782C53.8027 17.0939 54.0788 17.1278 54.3857 17.1799C54.6955 17.2314 54.9998 17.3249 55.2988 17.4603C55.6 17.5922 55.8649 17.7857 56.0933 18.0408C56.3218 18.2959 56.477 18.6334 56.559 19.0534C56.6536 19.5375 56.6121 19.9997 56.4347 20.4401C56.2602 20.8798 55.9534 21.2622 55.5143 21.5871C55.0781 21.9115 54.5159 22.1409 53.8276 22.2753C53.186 22.4006 52.6102 22.4055 52.1003 22.2902C51.5932 22.1742 51.1694 21.9573 50.8287 21.6393C50.491 21.3207 50.2568 20.9199 50.1261 20.4368L51.246 20.2181C51.3412 20.5507 51.5097 20.8085 51.7513 20.9914C51.9952 21.1708 52.2808 21.2846 52.6081 21.3327C52.9377 21.3773 53.2805 21.3649 53.6362 21.2954C54.0504 21.2145 54.4091 21.0748 54.7125 20.8763C55.0152 20.6749 55.2392 20.4344 55.3844 20.1547C55.5291 19.8721 55.5695 19.5676 55.5057 19.2409C55.4476 18.9435 55.3172 18.7176 55.1146 18.5634C54.9119 18.4093 54.6635 18.3003 54.3695 18.2366C54.0755 18.1729 53.7625 18.1281 53.4305 18.1021L52.2666 18.0024C51.5273 17.9379 50.9171 17.7589 50.436 17.4653C49.9548 17.1717 49.6552 16.7231 49.5373 16.1194C49.4394 15.6178 49.4896 15.1539 49.6879 14.7276C49.8885 14.2979 50.1991 13.9345 50.6194 13.6374C51.0421 13.3369 51.5392 13.1308 52.1109 13.0192C52.6883 12.9064 53.2218 12.9097 53.7113 13.0291C54.2003 13.1455 54.6108 13.356 54.9427 13.6605C55.2776 13.9645 55.4965 14.3411 55.5993 14.7903L54.5494 14.9953Z" fill="white"/>
<path d="M57.624 21.6137L56.4653 21.6325L59.6685 12.4511L60.8094 12.4326L64.3089 21.5052L63.1502 21.524L60.298 13.8852L60.2267 13.8863L57.624 21.6137ZM57.994 18.0415L62.6644 17.9657L62.6804 18.9462L58.0099 19.022L57.994 18.0415Z" fill="white"/>
<path d="M65.122 21.7977L66.7761 12.8206L69.9146 13.3988C70.54 13.5141 71.0358 13.7172 71.4022 14.0083C71.7691 14.2965 72.0185 14.6401 72.1504 15.039C72.2829 15.4351 72.3088 15.8523 72.228 16.2906C72.1569 16.6763 72.0296 16.9822 71.8459 17.2082C71.6652 17.4348 71.4503 17.6006 71.2013 17.7058C70.9552 17.8116 70.6971 17.8758 70.427 17.8985L70.4109 17.9862C70.6824 18.0544 70.9407 18.2017 71.186 18.4282C71.4314 18.6547 71.6174 18.9488 71.7441 19.3105C71.8708 19.6723 71.8905 20.0899 71.8033 20.5633C71.7204 21.0133 71.5435 21.3992 71.2728 21.7209C71.002 22.0427 70.6266 22.2681 70.1465 22.3972C69.6665 22.5263 69.0729 22.5257 68.3657 22.3954L65.122 21.7977ZM66.3868 21.0337L68.5434 21.431C69.2535 21.5619 69.7829 21.5174 70.1316 21.2976C70.4837 21.0755 70.6962 20.7672 70.7688 20.3726C70.8248 20.0687 70.7991 19.7739 70.6916 19.4882C70.5846 19.1996 70.4022 18.9515 70.1444 18.7438C69.8871 18.5333 69.5626 18.3919 69.1711 18.3198L66.9618 17.9127L66.3868 21.0337ZM67.1363 16.9659L69.1527 17.3374C69.4799 17.3977 69.7869 17.3878 70.0736 17.3077C70.3632 17.2281 70.607 17.0857 70.805 16.8805C71.0059 16.6758 71.1354 16.4156 71.1935 16.1C71.2662 15.7055 71.1905 15.3456 70.9664 15.0203C70.7429 14.6921 70.3331 14.473 69.7369 14.3632L67.6855 13.9852L67.1363 16.9659Z" fill="white"/>
<path d="M75.9188 15.0423L73.0692 23.7144L72.0191 23.3694L74.8687 14.6973L75.9188 15.0423Z" fill="white"/>
<path d="M75.1066 24.4905L79.0317 16.275L80.0266 16.7503L76.5231 24.0833L80.342 25.9078L79.9203 26.7904L75.1066 24.4905Z" fill="white"/>
<path d="M86.48 20.2842L81.5508 27.9519L80.6223 27.355L85.5515 19.6873L86.48 20.2842Z" fill="white"/>
<path d="M85.5175 30.9186L83.3964 29.065L89.4031 22.1915L91.6182 24.1273C92.2849 24.71 92.7352 25.3462 92.9691 26.0359C93.2049 26.7234 93.2253 27.4338 93.0304 28.1671C92.8374 28.8982 92.43 29.6195 91.8082 30.331C91.1825 31.047 90.5163 31.552 89.8096 31.8459C89.1048 32.1377 88.3873 32.2091 87.657 32.0603C86.9288 31.9092 86.2156 31.5287 85.5175 30.9186ZM84.874 29.054L86.109 30.1333C86.6774 30.63 87.2442 30.932 87.8094 31.0392C88.3747 31.1465 88.926 31.0778 89.4634 30.8331C90.0008 30.5885 90.5139 30.1865 91.0027 29.6271C91.4876 29.0722 91.8145 28.5153 91.9833 27.9565C92.154 27.3953 92.1531 26.85 91.9805 26.3204C91.81 25.7885 91.4562 25.288 90.9192 24.8187L89.5902 23.6573L84.874 29.054Z" fill="white"/>
<path d="M89.7286 35.0475L89.0306 34.1225L98.3359 31.2993L99.0232 32.2101L93.7559 40.3842L93.0579 39.4592L97.5483 32.6531L97.5054 32.5962L89.7286 35.0475ZM92.8326 33.2412L95.6464 36.9697L94.8636 37.5604L92.0499 33.8319L92.8326 33.2412Z" fill="white"/>
<path d="M95.2366 43.6872L94.0506 41.1321L102.33 37.2888L103.569 39.9571C103.942 40.7603 104.095 41.5245 104.029 42.2498C103.965 42.9738 103.695 43.6313 103.22 44.2224C102.746 44.8122 102.081 45.306 101.224 45.7039C100.362 46.1042 99.5479 46.2952 98.7827 46.277C98.0202 46.2575 97.3354 46.0315 96.7285 45.5991C96.1242 45.1654 95.627 44.5281 95.2366 43.6872ZM95.4054 41.7219L96.096 43.2097C96.4138 43.8943 96.8092 44.4003 97.2823 44.7278C97.7553 45.0553 98.2871 45.2163 98.8775 45.2109C99.4679 45.2054 100.1 45.0463 100.774 44.7336C101.442 44.4233 101.967 44.047 102.348 43.6048C102.732 43.1613 102.952 42.6625 103.01 42.1085C103.07 41.5532 102.95 40.9521 102.649 40.3053L101.906 38.7043L95.4054 41.7219Z" fill="white"/>
<path d="M97.3333 49.005L106.199 46.8323L107.511 52.183L106.558 52.4164L105.51 48.1393L102.514 48.8734L103.495 52.8735L102.542 53.1069L101.562 49.1068L98.5488 49.8452L99.614 54.1916L98.6616 54.425L97.3333 49.005Z" fill="white"/>
<path d="M46.2754 98.1174C46.4149 97.6845 46.3638 97.2754 46.122 96.89C45.8802 96.5047 45.5081 96.1969 45.0057 95.9666C44.6383 95.7983 44.2896 95.7104 43.9596 95.703C43.6323 95.6968 43.344 95.7625 43.0947 95.8999C42.8481 96.0386 42.6642 96.2403 42.5428 96.505C42.4413 96.7265 42.4067 96.9411 42.4391 97.1487C42.4753 97.3549 42.553 97.5491 42.6722 97.7312C42.7927 97.9106 42.9293 98.0761 43.082 98.2278C43.236 98.3769 43.3807 98.5069 43.5161 98.618L44.2549 99.2311C44.445 99.3869 44.6495 99.5754 44.8685 99.7966C45.0901 100.019 45.2829 100.273 45.4468 100.557C45.6146 100.84 45.7169 101.151 45.7537 101.492C45.7906 101.832 45.7199 102.197 45.5416 102.586C45.3361 103.034 45.0329 103.386 44.632 103.64C44.2338 103.896 43.7616 104.027 43.2154 104.035C42.6719 104.044 42.0814 103.903 41.4439 103.611C40.8496 103.338 40.3789 103.007 40.0319 102.616C39.6876 102.226 39.4698 101.802 39.3785 101.345C39.2899 100.89 39.3334 100.427 39.5089 99.9587L40.5462 100.434C40.4296 100.76 40.4161 101.067 40.5057 101.357C40.5993 101.645 40.765 101.904 41.0028 102.134C41.2446 102.362 41.5303 102.552 41.8598 102.703C42.2434 102.879 42.6163 102.974 42.9785 102.99C43.3419 103.003 43.6641 102.938 43.9452 102.796C44.2274 102.651 44.4379 102.427 44.5765 102.124C44.7028 101.849 44.7286 101.589 44.6538 101.346C44.5791 101.102 44.4408 100.869 44.2391 100.646C44.0374 100.423 43.8093 100.204 43.5547 99.9889L42.6673 99.2292C42.1044 98.7457 41.7131 98.2444 41.4933 97.7253C41.2736 97.2063 41.2919 96.6672 41.5481 96.108C41.761 95.6434 42.0723 95.2957 42.482 95.0651C42.8956 94.833 43.3597 94.7188 43.8744 94.7226C44.3931 94.7249 44.9171 94.8474 45.4466 95.0901C45.9814 95.3352 46.4129 95.6489 46.741 96.0314C47.0704 96.4111 47.2811 96.8214 47.3732 97.2624C47.468 97.7046 47.4262 98.1382 47.2478 98.563L46.2754 98.1174Z" fill="white"/>
<path d="M54.6846 102.694C54.4632 103.628 54.1032 104.395 53.6047 104.996C53.1062 105.596 52.5192 106.011 51.8437 106.24C51.1682 106.47 50.4529 106.495 49.6978 106.316C48.9426 106.137 48.3148 105.793 47.8143 105.285C47.3138 104.777 46.9755 104.142 46.7996 103.382C46.6237 102.622 46.6464 101.775 46.8678 100.841C47.0893 99.9071 47.4492 99.1401 47.9478 98.5398C48.4463 97.9395 49.0333 97.5247 49.7087 97.2951C50.3842 97.0656 51.0995 97.0404 51.8547 97.2195C52.6098 97.3985 53.2377 97.7422 53.7382 98.2506C54.2387 98.7589 54.5769 99.3932 54.7529 100.153C54.9288 100.914 54.9061 101.761 54.6846 102.694ZM53.647 102.448C53.8288 101.682 53.854 101.004 53.7225 100.416C53.5939 99.8283 53.3441 99.3475 52.9732 98.9733C52.6051 98.5999 52.153 98.3496 51.6168 98.2225C51.0807 98.0954 50.563 98.1157 50.0635 98.2834C49.5669 98.4518 49.1278 98.7694 48.7462 99.236C48.3675 99.7033 48.0873 100.32 47.9055 101.087C47.7237 101.854 47.6971 102.531 47.8256 103.118C47.9571 103.707 48.2069 104.188 48.575 104.561C48.946 104.935 49.3995 105.186 49.9356 105.313C50.4717 105.44 50.9881 105.419 51.4846 105.251C51.9841 105.083 52.4232 104.766 52.8019 104.298C53.1835 103.832 53.4652 103.215 53.647 102.448Z" fill="white"/>
<path d="M63.9258 101.209L62.8209 101.177C62.7649 100.857 62.6587 100.574 62.5024 100.329C62.3491 100.084 62.159 99.876 61.9321 99.7059C61.7083 99.5329 61.458 99.4007 61.1812 99.3093C60.9045 99.218 60.6146 99.1678 60.3117 99.1589C59.7592 99.1427 59.2547 99.2677 58.798 99.5337C58.3443 99.7998 57.9773 100.201 57.697 100.737C57.4197 101.272 57.2694 101.935 57.2462 102.725C57.2231 103.516 57.3342 104.186 57.5796 104.737C57.828 105.289 58.1709 105.71 58.6082 106.003C59.0485 106.295 59.5449 106.449 60.0974 106.466C60.4003 106.474 60.6926 106.441 60.9743 106.366C61.2559 106.291 61.5135 106.176 61.747 106.019C61.9835 105.859 62.1855 105.662 62.3529 105.426C62.5234 105.187 62.646 104.911 62.7206 104.598L63.8255 104.631C63.7286 105.095 63.5649 105.507 63.3343 105.869C63.1037 106.231 62.8213 106.537 62.487 106.785C62.1528 107.031 61.7802 107.215 61.3694 107.337C60.9616 107.459 60.5274 107.513 60.0671 107.499C59.2889 107.476 58.6024 107.266 58.0076 106.868C57.4129 106.47 56.952 105.915 56.6251 105.204C56.2981 104.493 56.1488 103.656 56.177 102.694C56.2052 101.732 56.4034 100.905 56.7714 100.214C57.1395 99.5237 57.6321 98.9971 58.2491 98.6347C58.8662 98.2723 59.5638 98.1025 60.342 98.1253C60.8024 98.1388 61.2326 98.2183 61.6326 98.3638C62.0356 98.5094 62.3966 98.7162 62.7158 98.9842C63.035 99.2492 63.2991 99.5691 63.5081 99.9439C63.7172 100.316 63.8564 100.737 63.9258 101.209Z" fill="white"/>
<path d="M65.193 98.0154L66.1971 107.052L65.1027 107.174L64.0986 98.137L65.193 98.0154Z" fill="white"/>
<path d="M69.8967 106.456L68.7746 106.745L69.7391 97.0691L70.8439 96.784L76.3703 104.785L75.2482 105.075L70.6869 98.3159L70.6179 98.3338L69.8967 106.456ZM69.42 102.896L73.9429 101.729L74.1879 102.678L69.665 103.846L69.42 102.896Z" fill="white"/>
<path d="M78.4366 103.812L74.6091 95.5247L75.6126 95.0612L79.0289 102.458L82.8811 100.679L83.2923 101.569L78.4366 103.812Z" fill="white"/>
<path d="M23.5 81L24.3262 83.6738H27L24.8377 85.3262L25.6639 88L23.5 86.3476L21.3377 88L22.1639 85.3262L20 83.6738H22.6738L23.5 81Z" fill="white"/>
<path d="M97 81L97.7082 83.6738H100L98.1452 85.3262L98.8534 88L97 86.3476L95.1452 88L95.8534 85.3262L94 83.6738H96.2918L97 81Z" fill="white"/>
<path d="M40 59.6576L56.6805 76L79 49L55.6843 63.1072L40 59.6576Z" fill="white"/>
<path d="M60.46 92.9999C52.1556 92.99 44.1509 89.896 37.9987 84.3181C31.8464 78.7401 27.9853 71.0759 27.1642 62.8122C26.3432 54.5484 28.6207 46.2743 33.5551 39.5948C38.4895 32.9153 45.7289 28.3067 53.869 26.6629C62.0091 25.0191 70.4696 26.4574 77.6093 30.6987C84.749 34.9399 90.0589 41.6819 92.5089 49.6167C94.9589 57.5515 94.3744 66.1134 90.8688 73.6417C87.3632 81.1699 81.1863 87.1277 73.5365 90.3593C69.3997 92.1103 64.9521 93.0084 60.46 92.9999ZM60.46 27.746C43.0037 27.746 28.806 41.947 28.806 59.4C28.806 76.8531 43.0087 91.054 60.46 91.054C77.9114 91.054 92.1141 76.8531 92.1141 59.4C92.1141 41.947 77.9164 27.746 60.46 27.746Z" fill="white"/>
</svg>
