<svg width="122" height="151" viewBox="0 0 122 151" fill="none" xmlns="http://www.w3.org/2000/svg">
<path d="M94.8889 150.538L60.6433 132.373L26.3977 150.538V104.877H94.8889V150.538Z" fill="#26BF31"/>
<path d="M122 60.9991C122 68.6694 111.948 74.286 109.182 80.9553C106.315 87.8701 109.344 98.9235 104.134 104.134C98.9235 109.344 87.8701 106.315 80.9553 109.182C74.286 111.948 68.6711 122 61.0009 122C53.3306 122 47.7158 111.948 41.0464 109.182C34.1316 106.314 23.0782 109.344 17.8679 104.134C12.6576 98.9235 15.6863 87.8684 12.8201 80.9553C10.0542 74.286 0 68.6694 0 60.9991C0 53.3289 10.0542 47.7123 12.8201 41.0447C15.6863 34.1299 12.6576 23.0765 17.8679 17.8662C23.0782 12.6559 34.1316 15.6863 41.0464 12.8184C47.7158 10.0524 53.3375 0 61.0009 0C68.6642 0 74.286 10.0524 80.9553 12.8184C87.8701 15.6863 98.9235 12.6559 104.134 17.8662C109.344 23.0765 106.315 34.1316 109.182 41.0447C111.941 47.7123 122 53.3306 122 60.9991Z" fill="#2DCC3F"/>
<path d="M18.3669 38.8542L19.0794 37.7359L27.1777 39.1981L27.2355 39.1075L22.4877 32.3859L23.2002 31.2675L30.938 36.1971L30.3796 37.0736L24.5007 33.3283L24.4525 33.4039L28.791 39.5673L28.2518 40.4136L20.8324 39.0864L20.7843 39.1619L26.6632 42.9072L26.1048 43.7838L18.3669 38.8542Z" fill="white"/>
<path d="M32.0297 35.4078L25.4963 28.9666L29.3838 25.0236L30.0856 25.7155L26.9782 28.8673L29.1857 31.0438L32.0918 28.0962L32.7937 28.7881L29.8875 31.7357L32.1078 33.9248L35.2656 30.7219L35.9674 31.4138L32.0297 35.4078Z" fill="white"/>
<path d="M31.9713 23.0499L37.6261 30.2747L36.7512 30.9594L31.0964 23.7346L31.9713 23.0499Z" fill="white"/>
<path d="M43.7986 21.1441C44.2735 21.9872 44.5316 22.8016 44.573 23.5872C44.6145 24.3728 44.4635 25.0816 44.1203 25.7137C43.777 26.3457 43.2645 26.8538 42.5827 27.2378C41.901 27.6217 41.2009 27.7967 40.4824 27.7626C39.764 27.7285 39.0796 27.4901 38.4292 27.0475C37.7789 26.6048 37.2163 25.962 36.7414 25.1188C36.2666 24.2757 36.0084 23.4614 35.967 22.6758C35.9256 21.8902 36.0765 21.1814 36.4198 20.5493C36.763 19.9172 37.2755 19.4092 37.9573 19.0252C38.6391 18.6412 39.3392 18.4663 40.0576 18.5004C40.7761 18.5345 41.4605 18.7728 42.1108 19.2155C42.7611 19.6581 43.3237 20.301 43.7986 21.1441ZM42.8618 21.6717C42.472 20.9796 42.0271 20.4606 41.5273 20.1148C41.0301 19.7676 40.5162 19.5823 39.9855 19.559C39.4574 19.5343 38.9513 19.6582 38.4673 19.9308C37.9833 20.2034 37.6137 20.5726 37.3586 21.0386C37.106 21.503 36.998 22.0385 37.0346 22.6452C37.0738 23.2504 37.2884 23.899 37.6782 24.5912C38.0681 25.2834 38.5116 25.8031 39.0088 26.1503C39.5086 26.4961 40.0226 26.6814 40.5507 26.7061C41.0814 26.7294 41.5887 26.6048 42.0727 26.3322C42.5567 26.0596 42.925 25.6911 43.1776 25.2266C43.4327 24.7607 43.5407 24.2252 43.5015 23.62C43.4649 23.0133 43.2517 22.3639 42.8618 21.6717Z" fill="white"/>
<path d="M50.4133 23.869L49.2746 24.1137L50.6403 14.436L51.7615 14.195L56.983 22.457L55.8443 22.7017L51.5409 15.7271L51.4709 15.7421L50.4133 23.869ZM50.0807 20.2748L54.6707 19.2883L54.8778 20.2518L50.2878 21.2383L50.0807 20.2748Z" fill="white"/>
<path d="M57.8594 13.2662L59.1852 13.2912L62.159 20.9643L62.2665 20.9664L65.5275 13.4108L66.8532 13.4358L66.6803 22.6088L65.6412 22.5892L65.7726 15.6199L65.683 15.6182L62.685 22.5335L61.6817 22.5146L58.9465 15.4912L58.857 15.4895L58.7256 22.4589L57.6864 22.4393L57.8594 13.2662Z" fill="white"/>
<path d="M67.9345 23.0735L70.1245 14.1641L73.2393 14.9297C73.86 15.0823 74.3455 15.3154 74.6959 15.6291C75.047 15.9399 75.2769 16.2994 75.3857 16.7075C75.4953 17.1127 75.4965 17.5328 75.3896 17.9678C75.2955 18.3507 75.1497 18.65 74.952 18.8659C74.7573 19.0826 74.5319 19.2363 74.2759 19.3271C74.0227 19.4187 73.76 19.4679 73.4876 19.4747L73.4662 19.5618C73.7346 19.6462 73.9851 19.8092 74.2179 20.051C74.4506 20.2927 74.6199 20.5988 74.7256 20.9693C74.8314 21.3397 74.8266 21.7599 74.7111 22.2297C74.6013 22.6763 74.401 23.053 74.1103 23.3599C73.8196 23.6667 73.4297 23.8707 72.9404 23.9719C72.4511 24.073 71.8556 24.0373 71.1537 23.8648L67.9345 23.0735ZM69.2486 22.3816L71.389 22.9078C72.0937 23.081 72.6275 23.0677 72.9904 22.8678C73.3568 22.6657 73.5882 22.3689 73.6844 21.9773C73.7585 21.6757 73.7501 21.3784 73.6591 21.0854C73.5689 20.7895 73.4005 20.5297 73.1541 20.3062C72.9084 20.0797 72.5912 19.9187 72.2026 19.8232L70.01 19.2842L69.2486 22.3816ZM70.241 18.3445L72.2421 18.8364C72.5669 18.9163 72.8756 18.9245 73.1679 18.861C73.4632 18.7983 73.7162 18.6698 73.927 18.4756C74.1406 18.2821 74.2859 18.0287 74.3629 17.7155C74.4592 17.3239 74.4045 16.9584 74.1989 16.6187C73.994 16.2762 73.5957 16.0322 73.0041 15.8868L70.9681 15.3863L70.241 18.3445Z" fill="white"/>
<path d="M79.1525 16.9286L75.7825 25.4619L74.7492 25.0538L78.1191 16.5205L79.1525 16.9286Z" fill="white"/>
<path d="M77.8113 26.2885L82.2046 18.2341L87.0655 20.8856L86.5936 21.7508L82.708 19.6314L81.2235 22.3529L84.8574 24.335L84.3855 25.2002L80.7516 23.2181L79.2586 25.9553L83.2071 28.1091L82.7352 28.9743L77.8113 26.2885Z" fill="white"/>
<path d="M94.7948 27.1245L88.922 34.1732L88.0959 33.485L88.866 24.7504L88.7971 24.6931L84.1861 30.2274L83.3325 29.5163L89.2053 22.4675L90.0313 23.1557L89.2636 31.9156L89.3324 31.9729L93.955 26.4248L94.7948 27.1245Z" fill="white"/>
<path d="M95.6492 29.6148L96.4126 28.9915L100.764 34.3216L100.001 34.9449L98.1764 32.7101L91.833 37.8892L91.1304 37.0286L97.4737 31.8495L95.6492 29.6148Z" fill="white"/>
<path d="M93.5628 40.3313L101.532 35.7856L104.276 40.5953L103.42 41.0836L101.227 37.239L98.5338 38.7749L100.585 42.3705L99.7286 42.8588L97.6777 39.2632L94.9694 40.8081L97.1978 44.7149L96.3417 45.2032L93.5628 40.3313Z" fill="white"/>
<path d="M26.6826 78.856L27.409 79.9653L22.7455 86.7456L22.8044 86.8356L30.8838 85.2724L31.6102 86.3817L23.9345 91.4075L23.3652 90.538L29.1969 86.7196L29.1478 86.6446L21.7456 88.0644L21.1959 87.2248L25.4571 81.0078L25.408 80.9328L19.5762 84.7512L19.0069 83.8817L26.6826 78.856Z" fill="white"/>
<path d="M26.0176 93.5305L32.4812 87.0193L36.4108 90.9202L35.7165 91.6196L32.5753 88.5014L30.3913 90.7015L33.329 93.6177L32.6347 94.3172L29.697 91.401L27.5004 93.6138L30.6924 96.7825L29.998 97.4819L26.0176 93.5305Z" fill="white"/>
<path d="M38.1041 92.0482L32.5062 99.3172L31.626 98.6394L37.2239 91.3704L38.1041 92.0482Z" fill="white"/>
<path d="M44.2754 101.058C43.8107 101.907 43.2558 102.556 42.6109 103.007C41.9659 103.457 41.2844 103.704 40.5664 103.746C39.8485 103.789 39.1463 103.623 38.4599 103.247C37.7736 102.871 37.255 102.369 36.9042 101.741C36.5534 101.113 36.3939 100.406 36.4259 99.6204C36.4579 98.8344 36.7062 98.017 37.1709 97.1682C37.6356 96.3194 38.1904 95.6699 38.8354 95.2194C39.4804 94.769 40.1618 94.5224 40.8798 94.4797C41.5978 94.4369 42.3 94.6034 42.9863 94.9792C43.6727 95.355 44.1912 95.8568 44.5421 96.4847C44.8929 97.1126 45.0523 97.8195 45.0203 98.6056C44.9884 99.3916 44.74 100.209 44.2754 101.058ZM43.3323 100.541C43.7138 99.8446 43.9192 99.1927 43.9485 98.5857C43.9804 97.9801 43.866 97.4459 43.6053 96.9831C43.3471 96.5217 42.9745 96.1576 42.4872 95.8908C42 95.6241 41.4911 95.5055 40.9608 95.5352C40.433 95.5663 39.9213 95.7578 39.4257 96.1095C38.9327 96.4627 38.4955 96.9877 38.114 97.6845C37.7325 98.3813 37.5258 99.0326 37.4938 99.6382C37.4645 100.245 37.5789 100.779 37.837 101.241C38.0978 101.704 38.4718 102.068 38.9591 102.335C39.4463 102.602 39.9538 102.72 40.4816 102.689C41.012 102.659 41.5236 102.468 42.0166 102.114C42.5122 101.763 42.9508 101.238 43.3323 100.541Z" fill="white"/>
<path d="M48.7528 107.22L47.613 106.98L52.7984 98.6958L53.9206 98.9319L55.3286 108.604L54.1888 108.364L53.0958 100.242L53.0256 100.227L48.7528 107.22ZM49.9114 103.802L54.5057 104.768L54.3028 105.733L49.7085 104.766L49.9114 103.802Z" fill="white"/>
<path d="M57.6462 99.6172L58.9721 99.5934L62.2264 107.152L62.3339 107.15L65.3144 99.4793L66.6403 99.4555L66.8052 108.629L65.766 108.647L65.6407 101.678L65.5511 101.679L62.8098 108.701L61.8065 108.719L58.8146 101.801L58.725 101.802L58.8503 108.772L57.8112 108.79L57.6462 99.6172Z" fill="white"/>
<path d="M69.7576 107.961L67.6221 99.0382L70.7415 98.2916C71.3631 98.1428 71.9014 98.1276 72.3566 98.2459C72.8111 98.3613 73.1802 98.5755 73.4639 98.8883C73.7469 99.1983 73.9405 99.5712 74.0448 100.007C74.1366 100.39 74.1441 100.723 74.0674 101.006C73.9936 101.287 73.8636 101.527 73.6777 101.725C73.4946 101.923 73.2836 102.087 73.0447 102.218L73.0655 102.305C73.3427 102.257 73.6401 102.287 73.9578 102.395C74.2754 102.504 74.5661 102.698 74.8299 102.979C75.0936 103.26 75.2818 103.635 75.3944 104.106C75.5015 104.553 75.4961 104.98 75.3783 105.386C75.2605 105.792 75.0073 106.152 74.6188 106.466C74.2302 106.78 73.6845 107.021 72.9816 107.189L69.7576 107.961ZM70.6087 106.744L72.7522 106.231C73.458 106.062 73.9264 105.805 74.1573 105.461C74.3904 105.114 74.4601 104.744 74.3662 104.352C74.2939 104.05 74.1502 103.79 73.9351 103.571C73.7193 103.349 73.4506 103.195 73.1291 103.11C72.807 103.021 72.4513 103.023 72.0621 103.116L69.8663 103.642L70.6087 106.744ZM69.641 102.701L71.6451 102.221C71.9704 102.143 72.2485 102.009 72.4793 101.819C72.713 101.628 72.8791 101.398 72.9774 101.128C73.0786 100.858 73.0917 100.567 73.0166 100.253C72.9228 99.8608 72.7067 99.5609 72.3683 99.3532C72.0292 99.1427 71.5634 99.1083 70.9709 99.2501L68.932 99.7381L69.641 102.701Z" fill="white"/>
<path d="M77.874 105.605L74.2158 97.1917L79.2937 94.9839L79.6867 95.8877L75.6276 97.6525L76.8637 100.495L80.6598 98.845L81.0528 99.7488L77.2567 101.399L78.4999 104.259L82.6246 102.465L83.0176 103.369L77.874 105.605Z" fill="white"/>
<path d="M80.9983 93.8796L85.6781 101.771L84.7225 102.338L80.0427 94.4463L80.9983 93.8796Z" fill="white"/>
<path d="M88.4123 88.2479L94.2159 95.3537L93.3832 96.0338L84.9543 93.6172L84.8849 93.6738L89.4417 99.253L88.5812 99.9558L82.7776 92.85L83.6103 92.1699L92.0644 94.5891L92.1338 94.5324L87.5657 88.9393L88.4123 88.2479Z" fill="white"/>
<path d="M89.4223 88.4041L88.6672 87.7708L93.0893 82.4988L93.8444 83.1322L91.9904 85.3426L98.2645 90.6053L97.5505 91.4565L91.2764 86.1938L89.4223 88.4041Z" fill="white"/>
<path d="M100.821 87.0772L92.9292 82.3975L95.7535 77.6349L96.6012 78.1376L94.3436 81.9446L97.01 83.5258L99.1214 79.9655L99.9691 80.4682L97.8577 84.0285L100.54 85.6189L102.834 81.7503L103.681 82.253L100.821 87.0772Z" fill="white"/>
<path d="M107.731 57.7894L108.741 60.514H112.012L109.366 62.1994L110.376 64.9239L107.731 63.2403L105.086 64.9239L106.095 62.1994L103.45 60.514H106.721L107.731 57.7894Z" fill="white"/>
<path d="M12.8428 57.7894L13.8529 60.514H17.1227L14.4769 62.1994L15.4887 64.9239L12.8428 63.2403L10.197 64.9239L11.2071 62.1994L8.56128 60.514H11.8311L12.8428 57.7894Z" fill="white"/>
<path d="M41.3804 60.0596L57.8591 77.7661L79.9067 48.5146L56.876 63.7989L41.3804 60.0596Z" fill="white"/>
<path d="M60.9621 95.6023C52.5613 95.5927 44.4634 92.4304 38.2393 86.7287C32.0153 81.027 28.1088 73.1924 27.2777 64.7448C26.4465 56.2971 28.75 47.8386 33.7413 41.0102C38.7325 34.1817 46.0558 29.47 54.2903 27.7892C62.5248 26.1083 71.0837 27.5781 78.3065 31.9133C85.5293 36.2486 90.9012 43.1404 93.3801 51.2516C95.859 59.3629 95.2682 68.1155 91.7223 75.8115C88.1763 83.5075 81.9281 89.5982 74.1896 92.9022C70.0052 94.6927 65.5062 95.611 60.9621 95.6023ZM60.9621 28.9025C43.3056 28.9025 28.9404 43.4189 28.9404 61.2613C28.9404 79.1038 43.3056 93.6219 60.9621 93.6219C78.6187 93.6219 92.9839 79.1055 92.9839 61.2613C92.9839 43.4171 78.6187 28.9025 60.9621 28.9025Z" fill="white"/>
</svg>
