<svg width="119" height="148" viewBox="0 0 119 148" fill="none" xmlns="http://www.w3.org/2000/svg">
<path d="M92.4439 148L59.2765 130.047L26.1091 148V102.87H92.4439V148Z" fill="#165B06"/>
<path d="M119 59.9452C119 67.4817 109.194 73.0013 106.496 79.5546C103.701 86.3492 106.658 97.2122 101.572 102.332C96.487 107.452 85.7112 104.476 78.9638 107.292C72.4591 110.011 66.9871 119.89 59.5 119.89C52.0129 119.89 46.5409 110.011 40.0362 107.292C33.292 104.476 22.5098 107.456 17.4277 102.332C12.3457 97.2089 15.2994 86.3525 12.5027 79.5546C9.80634 73.0013 0 67.4817 0 59.9452C0 52.4086 9.80634 46.8891 12.5027 40.3358C15.2994 33.5411 12.3409 22.6782 17.4277 17.5581C22.5146 12.4381 33.2888 15.4139 40.0362 12.5963C46.5409 9.87971 52.0178 0 59.5 0C66.9822 0 72.4591 9.87971 78.9638 12.5963C85.708 15.4139 96.4902 12.4332 101.572 17.5581C106.654 22.6831 103.701 33.5379 106.496 40.3358C109.194 46.8891 119 52.407 119 59.9452Z" fill="#1C7F08"/>
<path d="M32.4841 29.2758L33.3768 28.4724L35.0047 28.7909L35.4362 28.8782L37.8774 29.3684L36.9846 30.1719L35.3699 29.8416L34.9632 29.7557L32.4841 29.2758ZM34.5878 25.0994C35.2211 25.8137 35.6404 26.5461 35.8457 27.2968C36.051 28.0474 36.0555 28.7647 35.8594 29.4486C35.6632 30.1325 35.2785 30.7324 34.7052 31.2483C34.1319 31.7643 33.497 32.0821 32.8005 32.2016C32.1039 32.3212 31.397 32.2361 30.6797 31.9462C29.9624 31.6564 29.2871 31.1543 28.6538 30.4401C28.0205 29.7259 27.6012 28.9934 27.3959 28.2428C27.1906 27.4922 27.186 26.7749 27.3822 26.091C27.5783 25.4071 27.9631 24.8072 28.5363 24.2912C29.1096 23.7753 29.7445 23.4575 30.4411 23.3379C31.1376 23.2184 31.8445 23.3035 32.5618 23.5933C33.2791 23.8832 33.9544 24.3852 34.5878 25.0994ZM33.8001 25.8084C33.2801 25.222 32.7439 24.8147 32.1915 24.5866C31.6412 24.3565 31.1091 24.2865 30.5949 24.3767C30.083 24.4648 29.6235 24.6921 29.2165 25.0583C28.8096 25.4246 28.5328 25.8601 28.3861 26.3646C28.2416 26.8672 28.2509 27.4079 28.4138 27.9866C28.579 28.5633 28.9215 29.1448 29.4415 29.7312C29.9614 30.3176 30.4965 30.7258 31.0468 30.9559C31.5992 31.184 32.1314 31.254 32.6433 31.1659C33.1575 31.0757 33.618 30.8475 34.025 30.4812C34.432 30.1149 34.7077 29.6805 34.8522 29.1779C34.9988 28.6733 34.9896 28.1327 34.8244 27.5559C34.6615 26.9773 34.32 26.3947 33.8001 25.8084Z" fill="white"/>
<path d="M39.2968 17.3359L40.241 16.8001L43.1486 22.0013C43.4488 22.5383 43.5912 23.0891 43.5758 23.6536C43.5615 24.2141 43.3951 24.7447 43.0766 25.2454C42.7567 25.7436 42.2908 26.1662 41.6791 26.5133C41.0675 26.8604 40.4673 27.0427 39.8786 27.0601C39.2884 27.075 38.7505 26.944 38.2648 26.6672C37.7802 26.3865 37.3878 25.9776 37.0876 25.4406L34.1799 20.2394L35.1241 19.7036L37.9889 24.8281C38.2033 25.2117 38.4779 25.5055 38.8127 25.7096C39.146 25.9112 39.5154 26.0098 39.9208 26.0054C40.3274 25.997 40.7477 25.8697 41.1817 25.6234C41.6157 25.3772 41.9416 25.0811 42.1595 24.7352C42.3759 24.3867 42.4837 24.0173 42.4828 23.6271C42.4831 23.2328 42.376 22.8439 42.1616 22.4604L39.2968 17.3359Z" fill="white"/>
<path d="M45.7505 24.37L44.6668 24.7195L45.0687 15.1092L46.1357 14.7651L52.0021 22.3538L50.9185 22.7033L46.0678 16.2869L46.0011 16.3084L45.7505 24.37ZM45.0833 20.8818L49.4511 19.4732L49.7446 20.3969L45.3768 21.8056L45.0833 20.8818Z" fill="white"/>
<path d="M52.8317 22.3951L51.6914 13.4392L52.7679 13.3001L53.7857 21.2939L57.9179 20.7599L58.0404 21.7219L52.8317 22.3951Z" fill="white"/>
<path d="M59.8221 12.7988L60.0013 21.8281L58.9161 21.85L58.7368 12.8207L59.8221 12.7988Z" fill="white"/>
<path d="M64.8282 22.2238L62.0923 21.8162L63.4031 12.884L66.2602 13.3096C67.1203 13.4377 67.83 13.7262 68.3893 14.1749C68.9491 14.6208 69.3432 15.2009 69.5716 15.9153C69.8004 16.6269 69.847 17.4449 69.7113 18.3695C69.5748 19.3 69.2927 20.0765 68.8652 20.6992C68.438 21.3189 67.8834 21.7622 67.2014 22.029C66.5197 22.293 65.7287 22.3579 64.8282 22.2238ZM63.3067 21.0166L64.8998 21.2539C65.6328 21.3631 66.2613 21.3111 66.785 21.098C67.3088 20.8848 67.7276 20.5327 68.0415 20.0417C68.3554 19.5507 68.5657 18.9417 68.6724 18.2148C68.7782 17.4937 68.7524 16.8555 68.595 16.3002C68.438 15.742 68.1477 15.2888 67.724 14.9404C67.3008 14.5892 66.7428 14.362 66.0502 14.2588L64.3359 14.0035L63.3067 21.0166Z" fill="white"/>
<path d="M70.4969 23.3726L69.4274 22.9714L75.6576 15.6443L76.7106 16.0393L76.6672 25.6873L75.5977 25.2861L75.7208 17.1969L75.655 17.1722L70.4969 23.3726ZM72.1171 20.2053L76.4281 21.8225L76.0912 22.7342L71.7802 21.1171L72.1171 20.2053Z" fill="white"/>
<path d="M79.5685 27.6886L77.2454 26.184L82.085 18.5994L84.5111 20.1707C85.2413 20.6437 85.7694 21.2002 86.0951 21.8404C86.4225 22.4781 86.5442 23.1693 86.4604 23.914C86.3781 24.6563 86.0865 25.42 85.5855 26.2051C85.0814 26.9952 84.5077 27.5849 83.8644 27.9743C83.2227 28.3612 82.537 28.5348 81.8074 28.4949C81.0794 28.4526 80.3331 28.1838 79.5685 27.6886ZM78.6769 25.9596L80.0296 26.8358C80.6521 27.2389 81.2451 27.452 81.8087 27.4751C82.3724 27.4982 82.8973 27.3514 83.3833 27.0347C83.8694 26.718 84.3094 26.251 84.7033 25.6337C85.094 25.0214 85.3311 24.43 85.4146 23.8595C85.4996 23.2866 85.4205 22.7538 85.1772 22.2613C84.9355 21.7662 84.5205 21.3283 83.9324 20.9473L82.4767 20.0045L78.6769 25.9596Z" fill="white"/>
<path d="M84.1029 31.0012L90.2869 24.5001L94.1812 28.2602L93.5169 28.9585L90.404 25.9529L88.3145 28.1496L91.2258 30.9605L90.5615 31.6588L87.6502 28.8479L85.5486 31.0573L88.712 34.1116L88.0477 34.8099L84.1029 31.0012Z" fill="white"/>
<path d="M30.8389 93.11L31.7316 93.9015L31.6135 95.5569L31.5794 95.996L31.3898 98.48L30.4971 97.6885L30.6283 96.0447L30.6641 95.6304L30.8389 93.11ZM35.1776 94.7035C34.5537 95.4178 33.8866 95.9215 33.1761 96.2148C32.4657 96.5081 31.7641 96.5979 31.0713 96.4843C30.3785 96.3708 29.7454 96.0599 29.1722 95.5516C28.5989 95.0434 28.2123 94.4503 28.0124 93.7724C27.8125 93.0945 27.8118 92.3819 28.0102 91.6347C28.2086 90.8875 28.6197 90.1568 29.2436 89.4426C29.8674 88.7283 30.5346 88.2246 31.245 87.9313C31.9554 87.638 32.657 87.5482 33.3498 87.6617C34.0427 87.7753 34.6757 88.0862 35.249 88.5945C35.8222 89.1027 36.2088 89.6958 36.4087 90.3737C36.6086 91.0516 36.6094 91.7642 36.411 92.5114C36.2125 93.2586 35.8014 93.9893 35.1776 94.7035ZM34.3899 94.0052C34.902 93.4188 35.2369 92.8376 35.3946 92.2615C35.5544 91.6874 35.5596 91.1503 35.4102 90.6501C35.263 90.1519 34.9859 89.7224 34.5789 89.3616C34.1719 89.0008 33.7127 88.7775 33.2014 88.6918C32.6922 88.6081 32.164 88.6815 31.6169 88.9123C31.072 89.145 30.5434 89.5545 30.0313 90.1409C29.5191 90.7273 29.1831 91.3075 29.0233 91.8817C28.8657 92.4577 28.8604 92.9948 29.0077 93.493C29.1571 93.9932 29.4352 94.4237 29.8422 94.7845C30.2492 95.1453 30.7073 95.3676 31.2165 95.4514C31.7279 95.5371 32.256 95.4636 32.8009 95.2309C33.348 95.0001 33.8777 94.5915 34.3899 94.0052Z" fill="white"/>
<path d="M44.0956 94.4016L45.0506 94.9264L42.2023 100.187C41.9083 100.731 41.5186 101.146 41.0334 101.433C40.5521 101.719 40.0152 101.858 39.4226 101.851C38.8315 101.842 38.2265 101.667 37.6078 101.327C36.9891 100.987 36.5158 100.569 36.1878 100.074C35.8613 99.5756 35.6858 99.0445 35.6613 98.4806C35.6408 97.9156 35.7775 97.3615 36.0716 96.8183L38.9199 91.5574L39.875 92.0822L37.0687 97.2656C36.8586 97.6536 36.7564 98.0454 36.762 98.4411C36.769 98.8343 36.8822 99.2036 37.1016 99.549C37.3249 99.8932 37.6561 100.186 38.0951 100.427C38.5341 100.668 38.9577 100.791 39.3659 100.793C39.7755 100.794 40.145 100.69 40.4743 100.481C40.8076 100.272 41.0793 99.973 41.2893 99.585L44.0956 94.4016Z" fill="white"/>
<path d="M43.23 103.824L42.1455 103.477L47.9935 95.8736L49.0613 96.2151L49.4865 105.824L48.4021 105.478L48.1318 97.4166L48.0651 97.3952L43.23 103.824ZM44.6896 100.59L49.0608 101.988L48.7695 102.912L44.3983 101.514L44.6896 100.59Z" fill="white"/>
<path d="M51.7302 106.121L52.8953 97.1816L53.9697 97.3238L52.9297 105.303L57.0541 105.848L56.929 106.808L51.7302 106.121Z" fill="white"/>
<path d="M60.1269 97.6966L59.9814 106.725L58.8963 106.707L59.0417 97.6788L60.1269 97.6966Z" fill="white"/>
<path d="M66.031 106.255L63.2945 106.658L61.9961 97.7244L64.8538 97.3028C65.7141 97.1759 66.4761 97.2462 67.1401 97.5136C67.8036 97.7781 68.3469 98.2193 68.7698 98.8372C69.1924 99.4522 69.4709 100.222 69.6053 101.147C69.7405 102.077 69.6924 102.903 69.461 103.623C69.2291 104.341 68.8248 104.926 68.2479 105.38C67.6706 105.83 66.9316 106.122 66.031 106.255ZM64.2288 105.54L65.8222 105.305C66.5554 105.197 67.1424 104.965 67.583 104.609C68.0237 104.253 68.3241 103.794 68.4843 103.233C68.6445 102.671 68.6718 102.027 68.5661 101.3C68.4613 100.579 68.2541 99.9753 67.9447 99.4892C67.6348 99.0002 67.2272 98.6504 66.7218 98.4398C66.2161 98.2262 65.6168 98.1705 64.924 98.2727L63.2094 98.5257L64.2288 105.54Z" fill="white"/>
<path d="M73.2551 104.688L72.1864 105.082L72.2018 95.463L73.2541 95.0756L79.4206 102.419L78.3519 102.812L73.2474 96.5989L73.1816 96.6231L73.2551 104.688ZM72.4483 101.23L76.7559 99.6446L77.0863 100.556L72.7787 102.141L72.4483 101.23Z" fill="white"/>
<path d="M83.8635 99.7434L81.5127 101.22L76.7627 93.5453L79.2177 92.0031C79.9567 91.5389 80.6841 91.2953 81.4 91.2723C82.1143 91.2469 82.7887 91.4322 83.423 91.8283C84.0557 92.2219 84.618 92.8159 85.1096 93.6104C85.6044 94.4098 85.8891 95.1869 85.9636 95.9416C86.0365 96.6938 85.8985 97.3946 85.5497 98.044C85.1993 98.6909 84.6372 99.2574 83.8635 99.7434ZM81.9249 99.8162L83.2937 98.9563C83.9236 98.5607 84.3698 98.1103 84.6324 97.6053C84.895 97.1003 84.9881 96.5579 84.9115 95.9779C84.835 95.398 84.6035 94.7957 84.2169 94.1712C83.8335 93.5516 83.4029 93.0813 82.9253 92.7603C82.4461 92.4367 81.9327 92.2805 81.385 92.2914C80.8358 92.2999 80.2636 92.491 79.6684 92.8649L78.1954 93.7902L81.9249 99.8162Z" fill="white"/>
<path d="M89.6346 95.5753L83.5396 88.9556L87.505 85.2496L88.1597 85.9607L84.9899 88.9231L87.0494 91.1598L90.0138 88.3893L90.6686 89.1004L87.7041 91.8709L89.7755 94.1206L92.9966 91.1102L93.6514 91.8213L89.6346 95.5753Z" fill="white"/>
<path d="M22.9644 79.5073L23.8125 82.1358H26.5558L24.3353 83.7599L25.1834 86.3884L22.9644 84.7643L20.7455 86.3884L21.592 83.7599L19.373 82.1358H22.1164L22.9644 79.5073Z" fill="white"/>
<path d="M96.0355 79.5073L96.8836 82.1358H99.6269L97.4063 83.7599L98.2544 86.3884L96.0355 84.7643L93.8149 86.3884L94.663 83.7599L92.4441 82.1358H95.1874L96.0355 79.5073Z" fill="white"/>
<path d="M40.5769 58.9571L56.5739 76.1565L77.9766 47.7435L55.619 62.5884L40.5769 58.9571Z" fill="white"/>
<path d="M59.5001 93.5857C51.2455 93.5764 43.2887 90.4785 37.173 84.893C31.0573 79.3075 27.2189 71.6326 26.4022 63.3571C25.5856 55.0816 27.8489 46.7954 32.7533 40.1061C37.6576 33.4168 44.8533 28.8012 52.9445 27.1546C61.0356 25.508 69.4454 26.9479 76.5424 31.1949C83.6394 35.4419 88.9176 42.1932 91.3533 50.1393C93.7889 58.0853 93.2083 66.6596 89.724 74.1987C86.2397 81.7378 80.1002 87.7044 72.4964 90.9409C68.3851 92.6945 63.9647 93.594 59.5001 93.5857ZM59.5001 28.2449C42.15 28.2449 28.0353 42.4653 28.0353 59.9451C28.0353 77.425 42.15 91.6388 59.5001 91.6388C76.8501 91.6388 90.9584 77.425 90.9584 59.9451C90.9584 42.4653 76.8501 28.2449 59.5001 28.2449Z" fill="white"/>
</svg>
