<svg width="19" height="19" viewBox="0 0 19 19" fill="none" xmlns="http://www.w3.org/2000/svg">
<path d="M17.932 2.98731L15.4359 0.478629C15.1312 0.172118 14.7234 0 14.2922 0C13.8609 0 13.4531 0.16976 13.1484 0.478629L10.4602 3.17829C10.1555 3.4848 9.98438 3.89741 9.98438 4.33124C9.98438 4.76743 10.1531 5.17533 10.4602 5.4842L12.5602 7.59912C12.0818 8.72045 11.3944 9.73927 10.5352 10.6006C9.675 11.4706 8.66953 12.1567 7.55391 12.6424L5.45391 10.5275C5.14922 10.221 4.74141 10.0489 4.31016 10.0489C4.09744 10.0481 3.88672 10.09 3.69032 10.1722C3.49392 10.2544 3.3158 10.3752 3.16641 10.5275L0.475781 13.2271C0.171094 13.5337 0 13.9463 0 14.3801C0 14.8163 0.16875 15.2242 0.475781 15.5331L2.96953 18.0417C3.48984 18.5652 4.20703 18.8646 4.94297 18.8646C5.09531 18.8646 5.24297 18.8528 5.39297 18.8269C8.49609 18.3129 11.5758 16.6506 14.0625 14.1514C16.5469 11.6474 18.1969 8.54931 18.7125 5.42525C18.8602 4.53873 18.5648 3.62627 17.932 2.98731ZM17.0508 5.14468C16.5938 7.9245 15.1078 10.6972 12.8695 12.9489C10.6312 15.2006 7.87734 16.6954 5.11406 17.1552C4.76719 17.2141 4.41094 17.0963 4.15781 16.844L1.70859 14.3801L4.30547 11.7653L7.11328 14.5947L7.13437 14.6159L7.64062 14.4273C9.17561 13.8595 10.5695 12.9628 11.7258 11.7992C12.882 10.6357 13.7729 9.23309 14.3367 7.68872L14.5242 7.17944L11.693 4.3336L14.2898 1.71882L16.7391 4.1827C16.9922 4.43734 17.1094 4.79572 17.0508 5.14468Z" fill="white"/>
</svg>
