<svg width="147" height="147" viewBox="0 0 147 147" fill="none" xmlns="http://www.w3.org/2000/svg">
<circle cx="73.5" cy="73.5" r="73.5" fill="#F3F3F3"/>
<path fill-rule="evenodd" clip-rule="evenodd" d="M57.5747 48.0765C57.5747 47.6621 57.7415 47.2647 58.0385 46.9717C58.3354 46.6787 58.7381 46.514 59.158 46.514H93.9914C94.4113 46.514 94.814 46.6787 95.111 46.9717C95.4079 47.2647 95.5747 47.6621 95.5747 48.0765V49.639H103.491C103.911 49.639 104.314 49.8037 104.611 50.0967C104.908 50.3897 105.075 50.7871 105.075 51.2015V60.5765C105.075 62.6485 104.241 64.6357 102.756 66.1008C101.271 67.5659 99.2577 68.389 97.158 68.389H94.4933C92.0534 75.2015 85.7375 80.2078 78.158 80.825V90.264H89.2414C89.6613 90.264 90.064 90.4287 90.361 90.7217C90.6579 91.0147 90.8247 91.4121 90.8247 91.8265V101.202C90.8247 101.616 90.6579 102.013 90.361 102.306C90.064 102.599 89.6613 102.764 89.2414 102.764H63.908C63.4881 102.764 63.0854 102.599 62.7885 102.306C62.4915 102.013 62.3247 101.616 62.3247 101.202V91.8265C62.3247 91.4121 62.4915 91.0147 62.7885 90.7217C63.0854 90.4287 63.4881 90.264 63.908 90.264H74.9914V80.825C67.4135 80.2078 61.096 75.2015 58.6561 68.389H55.9914C53.8917 68.389 51.8781 67.5659 50.3934 66.1008C48.9088 64.6357 48.0747 62.6485 48.0747 60.5765V51.2015C48.0747 50.7871 48.2415 50.3897 48.5385 50.0967C48.8354 49.8037 49.2381 49.639 49.658 49.639H57.5747V48.0765ZM92.408 62.139V49.639H60.7414V62.139C60.7414 70.7687 67.83 77.764 76.5747 77.764C85.3195 77.764 92.408 70.7687 92.408 62.139ZM95.5747 52.764V65.264H97.158C98.4178 65.264 99.626 64.7702 100.517 63.8911C101.408 63.012 101.908 61.8197 101.908 60.5765V52.764H95.5747ZM51.2414 52.764H57.5747V65.264H55.9914C54.7316 65.264 53.5234 64.7702 52.6326 63.8911C51.7418 63.012 51.2414 61.8197 51.2414 60.5765V52.764ZM65.4914 93.389V99.639H87.658V93.389H65.4914Z" fill="#191919" stroke="#191919" stroke-width="2"/>
</svg>
