<svg width="147" height="147" viewBox="0 0 147 147" fill="none" xmlns="http://www.w3.org/2000/svg">
<circle cx="73.5" cy="73.5" r="73.5" fill="#F3F3F3"/>
<path d="M107.327 70.3765C108.867 72.3915 108.867 75.1118 107.327 77.1235C102.475 83.4578 90.8331 96.5 77.2416 96.5C63.6501 96.5 52.0086 83.4578 47.1564 77.1235C46.4069 76.1587 46 74.9717 46 73.75C46 72.5283 46.4069 71.3413 47.1564 70.3765C52.0086 64.0422 63.6501 51 77.2416 51C90.8331 51 102.475 64.0422 107.327 70.3765V70.3765Z" stroke="#191919" stroke-width="5" stroke-linecap="round" stroke-linejoin="round"/>
<path d="M77.2417 83.5C82.6265 83.5 86.9917 79.1348 86.9917 73.75C86.9917 68.3652 82.6265 64 77.2417 64C71.8569 64 67.4917 68.3652 67.4917 73.75C67.4917 79.1348 71.8569 83.5 77.2417 83.5Z" stroke="#191919" stroke-width="5" stroke-linecap="round" stroke-linejoin="round"/>
</svg>
