<svg width="18" height="18" viewBox="0 0 18 18" fill="none" xmlns="http://www.w3.org/2000/svg">
<path d="M16.4804 4.11904C13.8158 -0.000136165 8.37575 -1.22475 4.15691 1.33581C0.0490863 3.89638 -1.28318 9.46283 1.38135 13.582L1.6034 13.916L0.71522 17.2559L4.04589 16.3652L4.37895 16.5879C5.82224 17.3672 7.37655 17.8125 8.93086 17.8125C10.5962 17.8125 12.2615 17.3672 13.7048 16.4766C17.8126 13.8047 19.0339 8.34954 16.4804 4.11904ZM14.1489 12.6914C13.7048 13.3593 13.1497 13.8047 12.3726 13.916C11.9285 13.916 11.3733 14.1386 9.15291 13.248C7.26553 12.3574 5.71122 10.9101 4.601 9.24017C3.93486 8.46087 3.6018 7.45891 3.49077 6.45694C3.49077 5.56631 3.82384 4.78701 4.37895 4.23037C4.601 4.00771 4.82304 3.89638 5.04508 3.89638H5.6002C5.82224 3.89638 6.04428 3.89638 6.15531 4.34169C6.37735 4.89834 6.93246 6.23429 6.93246 6.34562C7.04348 6.45694 7.04348 6.6796 6.93246 6.79093C7.04348 7.01359 6.93246 7.23625 6.82144 7.34758C6.71042 7.45891 6.5994 7.68156 6.48837 7.79289C6.26633 7.90422 6.15531 8.12688 6.26633 8.34954C6.71042 9.01751 7.26553 9.68548 7.82064 10.2421C8.48677 10.7988 9.15291 11.2441 9.93006 11.5781C10.1521 11.6894 10.3741 11.6894 10.4852 11.4667C10.5962 11.2441 11.1513 10.6874 11.3733 10.4648C11.5954 10.2421 11.7064 10.2421 11.9285 10.3535L13.7048 11.2441C13.9269 11.3554 14.1489 11.4667 14.2599 11.5781C14.3709 11.9121 14.3709 12.3574 14.1489 12.6914Z" fill="#191919"/>
</svg>
